<mxfile host="Electron" modified="2023-05-07T23:22:23.439Z" agent="Mozilla/5.0 (Windows NT 10.0; Win64; x64) AppleWebKit/537.36 (KHTML, like Gecko) draw.io/21.1.2 Chrome/106.0.5249.199 Electron/21.4.3 Safari/537.36" etag="hJ7u_1qT8j636jDkk7Fp" version="21.1.2" type="device">
  <diagram name="Page-1" id="wggyqH3K7kE8WTLh7nx6">
    <mxGraphModel dx="1098" dy="838" grid="1" gridSize="10" guides="1" tooltips="1" connect="1" arrows="1" fold="1" page="1" pageScale="1" pageWidth="850" pageHeight="1100" math="0" shadow="0">
      <root>
        <mxCell id="0" />
        <mxCell id="1" parent="0" />
        <mxCell id="Fb4DowX77eT3KdUFuQly-5" style="edgeStyle=orthogonalEdgeStyle;rounded=0;orthogonalLoop=1;jettySize=auto;html=1;" edge="1" parent="1" source="Fb4DowX77eT3KdUFuQly-1" target="Fb4DowX77eT3KdUFuQly-2">
          <mxGeometry relative="1" as="geometry">
            <Array as="points">
              <mxPoint x="359" y="228" />
            </Array>
          </mxGeometry>
        </mxCell>
        <mxCell id="Fb4DowX77eT3KdUFuQly-6" style="edgeStyle=orthogonalEdgeStyle;rounded=0;orthogonalLoop=1;jettySize=auto;html=1;" edge="1" parent="1" source="Fb4DowX77eT3KdUFuQly-1" target="Fb4DowX77eT3KdUFuQly-4">
          <mxGeometry relative="1" as="geometry">
            <Array as="points">
              <mxPoint x="359" y="468" />
            </Array>
          </mxGeometry>
        </mxCell>
        <mxCell id="Fb4DowX77eT3KdUFuQly-7" style="edgeStyle=orthogonalEdgeStyle;rounded=0;orthogonalLoop=1;jettySize=auto;html=1;" edge="1" parent="1" source="Fb4DowX77eT3KdUFuQly-1" target="Fb4DowX77eT3KdUFuQly-3">
          <mxGeometry relative="1" as="geometry" />
        </mxCell>
        <mxCell id="Fb4DowX77eT3KdUFuQly-1" value="CloudFormation &lt;b&gt;StackSet &lt;/b&gt;Admin Account" style="sketch=0;points=[[0,0,0],[0.25,0,0],[0.5,0,0],[0.75,0,0],[1,0,0],[0,1,0],[0.25,1,0],[0.5,1,0],[0.75,1,0],[1,1,0],[0,0.25,0],[0,0.5,0],[0,0.75,0],[1,0.25,0],[1,0.5,0],[1,0.75,0]];points=[[0,0,0],[0.25,0,0],[0.5,0,0],[0.75,0,0],[1,0,0],[0,1,0],[0.25,1,0],[0.5,1,0],[0.75,1,0],[1,1,0],[0,0.25,0],[0,0.5,0],[0,0.75,0],[1,0.25,0],[1,0.5,0],[1,0.75,0]];outlineConnect=0;fontColor=#232F3E;gradientColor=#F34482;gradientDirection=north;fillColor=#BC1356;strokeColor=#ffffff;dashed=0;verticalLabelPosition=bottom;verticalAlign=top;align=center;html=1;fontSize=12;fontStyle=0;aspect=fixed;shape=mxgraph.aws4.resourceIcon;resIcon=mxgraph.aws4.cloudformation;" vertex="1" parent="1">
          <mxGeometry x="320" y="308.5" width="78" height="78" as="geometry" />
        </mxCell>
        <mxCell id="Fb4DowX77eT3KdUFuQly-2" value="sa-east-1 Account A" style="outlineConnect=0;dashed=0;verticalLabelPosition=bottom;verticalAlign=top;align=center;html=1;shape=mxgraph.aws3.cloud_2;fillColor=#F58534;gradientColor=none;" vertex="1" parent="1">
          <mxGeometry x="550" y="190" width="75" height="75" as="geometry" />
        </mxCell>
        <mxCell id="Fb4DowX77eT3KdUFuQly-3" value="sa-east-1 Account B" style="outlineConnect=0;dashed=0;verticalLabelPosition=bottom;verticalAlign=top;align=center;html=1;shape=mxgraph.aws3.cloud_2;fillColor=#F58534;gradientColor=none;" vertex="1" parent="1">
          <mxGeometry x="550" y="310" width="75" height="75" as="geometry" />
        </mxCell>
        <mxCell id="Fb4DowX77eT3KdUFuQly-4" value="sa-east-1 Account A" style="outlineConnect=0;dashed=0;verticalLabelPosition=bottom;verticalAlign=top;align=center;html=1;shape=mxgraph.aws3.cloud_2;fillColor=#F58534;gradientColor=none;" vertex="1" parent="1">
          <mxGeometry x="550" y="430" width="75" height="75" as="geometry" />
        </mxCell>
      </root>
    </mxGraphModel>
  </diagram>
</mxfile>
